<?xml version="1.0" encoding="UTF-8"?>
<svg id="Layer_1" data-name="Layer 1" xmlns="http://www.w3.org/2000/svg" xmlns:xlink="http://www.w3.org/1999/xlink" viewBox="0 0 198.33 112.23">
  <defs>
    <style>
      .cls-1 {
        fill: url(#Analogous_2);
      }
    </style>
    <linearGradient id="Analogous_2" data-name="Analogous 2" x1="0" y1="56.12" x2="198.33" y2="56.12" gradientUnits="userSpaceOnUse">
      <stop offset="0" stop-color="#00a995"/>
      <stop offset=".5" stop-color="#006eb9"/>
      <stop offset="1" stop-color="#00aa4f"/>
    </linearGradient>
  </defs>
  <path class="cls-1" d="m0,111.44V38.6c0-1.55.29-2.98.89-4.3.59-1.32,1.37-2.48,2.32-3.48.96-1,2.09-1.8,3.42-2.39,1.32-.59,2.71-.89,4.17-.89,3.01,0,5.58,1.09,7.72,3.28,2.14,2.19,3.21,4.78,3.21,7.79v40.45c0,2.46-.46,4.85-1.37,7.17-.91,2.32-2.17,4.4-3.76,6.22-1.59,1.82-3.48,3.33-5.67,4.51-2.19,1.19-4.51,1.91-6.97,2.19h-.41v12.3H0Zm3.55-15.99h.55c4.1-.73,7.47-2.6,10.11-5.6,2.64-3.01,3.96-6.6,3.96-10.8v-40.45c0-2.09-.71-3.85-2.12-5.26-1.41-1.41-3.17-2.12-5.26-2.12s-3.71.71-5.12,2.12-2.12,3.17-2.12,5.26v56.85ZM32.11,15.92h3.55v84.58c0,2.01.71,3.71,2.12,5.12,1.41,1.41,3.12,2.12,5.12,2.12h4.92v3.69h-4.92c-1.46,0-2.85-.29-4.17-.89-1.32-.59-2.46-1.39-3.42-2.39-.96-1-1.73-2.16-2.32-3.48-.59-1.32-.89-2.71-.89-4.17V15.92Zm26.03,36.21c0-2.87.53-5.66,1.59-8.37,1.06-2.71,2.52-5.13,4.38-7.25,1.86-2.13,4.04-3.85,6.54-5.18,2.5-1.33,5.23-2.15,8.21-2.47l.48-.16v-.32c0-2.55-.72-4.81-2.15-6.78-1.43-1.96-3.53-2.95-6.3-2.95h-5.74v-4.3h5.74c1.7,0,3.32.35,4.86,1.04,1.54.69,2.87,1.62,3.99,2.79,1.12,1.17,2.02,2.53,2.71,4.07.69,1.54,1.04,3.22,1.04,5.02v72.22c0,3.51-1.25,6.51-3.75,9.01-2.5,2.5-5.45,3.75-8.85,3.75s-6.51-1.25-9.01-3.75c-2.5-2.5-3.75-5.5-3.75-9.01v-47.35Zm4.15,0v47.35c0,2.34.82,4.36,2.47,6.06,1.65,1.7,3.69,2.55,6.14,2.55s4.33-.85,5.98-2.55c1.65-1.7,2.47-3.72,2.47-6.06V33h-.64c-4.78.85-8.72,3.03-11.8,6.54-3.08,3.51-4.62,7.71-4.62,12.59ZM95.6,0h4.15v4.3h-4.15V0Zm4.15,14.35v97.09h-4.15V14.35h4.15Zm11.55,1.57h3.55v84.58c0,2.01.71,3.71,2.12,5.12,1.41,1.41,3.12,2.12,5.12,2.12h4.92v3.69h-4.92c-1.46,0-2.85-.29-4.17-.89-1.32-.59-2.46-1.39-3.42-2.39-.96-1-1.73-2.16-2.32-3.48-.59-1.32-.89-2.71-.89-4.17V15.92Zm25.14,0h3.55v3.69h-3.55v-3.69Zm3.55,12.3v83.22h-3.55V28.22h3.55Zm21.59-.68c3.01,0,5.58,1.09,7.72,3.28,2.14,2.19,3.21,4.78,3.21,7.79v4.78h-3.55v-4.78c0-2.09-.73-3.85-2.19-5.26-1.46-1.41-3.19-2.12-5.19-2.12-1.73,0-3.1.37-4.1,1.09-1,.73-1.73,1.64-2.19,2.73-.46,1.09-.75,2.3-.89,3.62-.14,1.32-.21,2.62-.21,3.89,0,1.09.02,2.21.07,3.35.05,1.14.16,2.3.34,3.48.18,1.82.61,3.42,1.3,4.78.68,1.37,1.48,2.64,2.39,3.83.45.55.93,1.07,1.44,1.57.5.5,1.02,1.02,1.57,1.57.45.46.96.91,1.5,1.37.55.46,1.09.91,1.64,1.37,1,.91,2,1.91,3.01,3.01,1,1.09,1.87,2.3,2.6,3.62.73,1.32,1.32,2.82,1.78,4.51.45,1.69.68,3.62.68,5.81v20.36c0,3.01-1.07,5.58-3.21,7.72-2.14,2.14-4.71,3.21-7.72,3.21s-5.56-1.07-7.65-3.21c-2.1-2.14-3.14-4.71-3.14-7.72v-4.92h3.55v4.92c0,2.01.7,3.74,2.12,5.19,1.41,1.46,3.12,2.19,5.12,2.19s3.73-.73,5.19-2.19c1.46-1.46,2.19-3.19,2.19-5.19v-20.36c0-3.1-.52-5.58-1.57-7.45-1.05-1.87-2.48-3.85-4.3-5.94-.55-.55-1.12-1.07-1.71-1.57-.59-.5-1.16-1.02-1.71-1.57-1.09-1-2.19-2.05-3.28-3.14-1.09-1.09-2.05-2.32-2.87-3.69-.82-1.37-1.48-2.94-1.98-4.71-.5-1.78-.75-3.85-.75-6.22v-7.93c0-3.01,1.05-5.6,3.14-7.79,2.09-2.19,4.65-3.28,7.65-3.28Zm21.04-11.61h3.55l.14,12.3h12.03v3.69h-12.03l-.14,68.6c0,2.01.71,3.71,2.12,5.12,1.41,1.41,3.12,2.12,5.12,2.12h4.92v3.69h-4.92c-1.46,0-2.85-.29-4.17-.89-1.32-.59-2.46-1.39-3.42-2.39-.96-1-1.73-2.16-2.32-3.48-.59-1.32-.89-2.71-.89-4.17V15.92Z"/>
</svg>